<?xml version="1.0" standalone="no"?>
<!DOCTYPE svg PUBLIC "-//W3C//DTD SVG 20010904//EN"
 "http://www.w3.org/TR/2001/REC-SVG-20010904/DTD/svg10.dtd">
<svg version="1.0" xmlns="http://www.w3.org/2000/svg"
 width="1536.000000pt" height="390.000000pt" viewBox="0 0 1536.000000 390.000000"
 preserveAspectRatio="xMidYMid meet">
<metadata>
Created by potrace 1.16, written by Peter Selinger 2001-2019
</metadata>
<g transform="translate(0.000000,390.000000) scale(0.100000,-0.100000)"
fill="#000000" stroke="none">
<path d="M1731 3158 c6 -13 51 -90 99 -173 48 -82 142 -247 210 -365 68 -118
170 -294 226 -390 56 -96 269 -465 474 -820 204 -355 414 -717 465 -805 51
-88 97 -168 102 -178 12 -23 10 -26 110 148 45 77 231 396 413 710 183 314
374 642 425 730 51 88 164 282 251 430 165 284 345 594 396 683 l30 52 -1606
0 -1607 0 12 -22z m1699 -98 c36 -11 71 -22 78 -25 8 -3 3 -19 -19 -55 -17
-27 -33 -50 -35 -50 -3 0 -24 10 -47 22 -36 19 -58 23 -152 23 -95 0 -116 -3
-151 -22 -64 -34 -94 -76 -94 -130 0 -83 63 -146 172 -173 59 -15 197 1 243
29 29 17 33 17 41 2 6 -9 20 -32 32 -52 l22 -36 -63 -21 c-148 -49 -261 -53
-370 -12 -71 27 -132 72 -172 128 -25 37 -30 55 -33 116 -5 87 14 132 78 190
44 39 83 59 160 82 64 19 227 11 310 -16z m-1320 -3 c0 -12 32 -76 71 -142 39
-66 78 -133 86 -149 15 -29 16 -29 30 -10 44 59 173 285 173 303 0 20 5 21 91
21 81 0 90 -2 85 -17 -4 -9 -70 -123 -146 -253 -77 -130 -140 -242 -140 -248
0 -8 -23 -12 -69 -12 -59 0 -69 3 -74 19 -2 11 -68 127 -146 259 -77 131 -141
242 -141 245 0 4 41 7 90 7 87 0 90 -1 90 -23z m712 -222 c-2 -162 1 -251 8
-265 10 -19 8 -20 -69 -20 l-81 0 10 26 c6 15 9 126 8 265 l-3 239 65 0 65 0
-3 -245z m1163 226 c-5 -17 174 -442 211 -498 l14 -23 -82 0 -83 0 -15 48 -15
47 -142 3 -142 3 -17 -26 c-9 -14 -14 -36 -12 -50 l5 -25 -90 0 c-70 0 -87 3
-80 13 20 25 223 487 223 507 0 19 6 20 116 20 108 0 115 -1 109 -19z m669 -7
c3 -9 6 -30 6 -48 l0 -33 -112 1 -113 1 0 -218 0 -217 -68 0 -68 0 2 218 1
217 -116 0 c-99 0 -115 2 -112 15 3 8 7 30 11 48 l7 32 278 0 c244 0 279 -2
284 -16z m-294 -584 c0 -6 -40 -79 -89 -163 -48 -84 -184 -318 -301 -522 -118
-203 -263 -455 -323 -560 -61 -104 -119 -206 -130 -225 -93 -167 -191 -330
-196 -330 -4 0 -225 381 -492 847 -487 852 -538 942 -539 956 0 4 466 7 1035
7 707 0 1035 -3 1035 -10z"/>
<path d="M3823 2847 c-24 -56 -43 -106 -43 -110 0 -4 41 -7 91 -7 83 0 91 2
85 18 -34 90 -81 202 -85 202 -3 0 -25 -46 -48 -103z"/>
<path d="M5558 2407 c-118 -34 -181 -145 -149 -265 18 -67 62 -108 175 -162
123 -59 138 -73 134 -131 -3 -37 -8 -47 -38 -67 -47 -32 -130 -27 -214 11 -32
15 -62 24 -67 21 -5 -3 -9 -30 -9 -59 0 -65 12 -76 110 -101 189 -48 365 40
378 190 10 128 -29 184 -178 254 -119 55 -140 74 -140 123 0 78 89 102 204 54
33 -13 63 -22 68 -19 10 6 10 95 0 111 -26 40 -189 64 -274 40z"/>
<path d="M8657 2410 c-165 -42 -257 -184 -257 -395 0 -175 63 -290 190 -349
36 -17 64 -21 145 -20 161 0 225 36 225 124 0 63 -10 66 -81 31 -74 -37 -142
-41 -205 -12 -74 34 -108 108 -108 236 0 101 16 156 60 205 64 71 162 79 256
21 33 -21 54 -29 61 -22 13 13 10 110 -3 126 -39 47 -196 77 -283 55z"/>
<path d="M13177 2410 c-165 -42 -257 -184 -257 -395 0 -175 63 -290 190 -349
36 -17 64 -21 145 -20 116 0 191 23 213 64 12 24 11 104 -1 117 -3 3 -34 -9
-68 -26 -121 -61 -229 -33 -283 72 -25 48 -29 68 -30 144 -1 112 20 178 74
227 65 59 154 61 243 6 34 -21 53 -28 60 -21 14 14 12 108 -3 125 -39 47 -195
78 -283 56z"/>
<path d="M13809 2407 c-106 -30 -182 -97 -221 -197 -19 -46 -22 -75 -23 -185
0 -203 38 -286 162 -347 64 -31 73 -33 178 -33 98 0 116 3 165 26 142 67 200
173 200 370 0 180 -50 283 -164 339 -57 28 -79 33 -159 36 -56 3 -110 -1 -138
-9z m201 -139 c68 -35 93 -88 98 -209 5 -127 -13 -193 -67 -242 -45 -41 -89
-52 -163 -44 -104 13 -154 90 -157 243 -1 45 3 102 9 126 14 54 61 115 104
134 49 21 125 17 176 -8z"/>
<path d="M6018 2399 c-17 -9 -18 -38 -18 -369 0 -345 1 -360 19 -370 22 -11
83 -13 119 -4 l22 6 0 368 0 368 -22 6 c-35 9 -101 7 -120 -5z"/>
<path d="M6336 2388 c-14 -19 -16 -71 -16 -368 0 -256 3 -349 12 -358 13 -13
85 -16 112 -6 14 5 16 41 16 295 l0 289 136 -268 c80 -158 147 -278 165 -294
25 -24 38 -28 89 -28 105 0 100 -19 100 388 0 257 -3 351 -12 360 -13 13 -96
16 -115 4 -9 -6 -13 -75 -15 -265 l-3 -257 -52 103 c-121 235 -204 383 -228
405 -22 18 -38 22 -100 22 -65 0 -76 -3 -89 -22z"/>
<path d="M7301 2397 c-18 -22 -252 -700 -249 -722 3 -17 12 -20 59 -23 70 -4
80 5 108 98 l22 71 146 -3 146 -3 25 -75 c14 -41 30 -78 36 -82 6 -4 39 -8 74
-8 48 0 64 4 69 16 7 18 7 19 -77 254 -76 216 -127 361 -146 420 -9 25 -23 51
-32 58 -22 17 -166 16 -181 -1z m139 -293 c28 -81 50 -152 50 -156 0 -4 -47
-8 -105 -8 -58 0 -105 3 -105 6 0 14 103 315 106 311 3 -2 27 -71 54 -153z"/>
<path d="M7858 2399 c-17 -9 -18 -38 -18 -369 0 -345 1 -360 19 -370 22 -11
83 -13 119 -4 l22 6 0 368 0 368 -22 6 c-35 9 -101 7 -120 -5z"/>
<path d="M9090 2400 c-13 -8 -15 -60 -15 -370 0 -310 2 -362 15 -370 9 -6 102
-9 220 -7 l205 2 0 55 0 55 -142 3 -143 3 0 109 0 110 120 0 c119 0 120 0 126
25 3 14 3 41 0 60 l-7 35 -119 0 -120 0 0 90 0 90 139 0 c151 0 151 0 151 60
0 62 7 60 -214 60 -110 0 -208 -5 -216 -10z"/>
<path d="M9680 2390 c-19 -19 -20 -33 -20 -368 0 -257 3 -351 12 -360 13 -13
106 -16 125 -4 10 6 13 84 15 314 l3 306 104 -301 c57 -166 110 -308 119 -314
17 -14 110 -17 128 -5 5 4 38 84 71 177 34 94 83 231 110 305 l48 135 3 -305
c2 -228 5 -306 15 -312 19 -12 112 -9 125 4 9 9 12 103 12 360 0 416 9 388
-125 388 -76 0 -89 -3 -108 -22 -13 -14 -60 -122 -111 -258 -48 -129 -91 -239
-95 -243 -5 -4 -16 14 -25 40 -10 26 -26 71 -36 98 -10 28 -43 118 -73 200
-67 181 -71 185 -194 185 -70 0 -86 -3 -103 -20z"/>
<path d="M10730 2400 c-13 -8 -15 -60 -15 -370 0 -310 2 -362 15 -370 9 -6
102 -9 220 -7 l205 2 0 55 0 55 -142 3 -143 3 0 109 0 110 120 0 119 0 7 35
c3 19 3 46 0 60 -6 25 -7 25 -126 25 l-120 0 0 90 0 90 139 0 c151 0 151 0
151 60 0 62 7 60 -214 60 -110 0 -208 -5 -216 -10z"/>
<path d="M11316 2388 c-14 -19 -16 -71 -16 -368 0 -256 3 -349 12 -358 13 -13
85 -16 112 -6 14 5 16 41 16 295 l0 289 136 -268 c80 -158 147 -278 165 -294
25 -24 38 -28 89 -28 105 0 100 -19 100 388 0 257 -3 351 -12 360 -13 13 -96
16 -115 4 -9 -6 -13 -75 -15 -265 l-3 -257 -57 113 c-137 266 -191 364 -219
390 -27 24 -36 27 -104 27 -65 0 -76 -3 -89 -22z"/>
<path d="M12024 2396 c-3 -7 -4 -35 -2 -62 l3 -49 103 -3 102 -3 0 -308 c0
-345 -6 -321 75 -321 81 0 75 -24 75 321 l0 309 99 0 c64 0 102 4 107 11 4 7
7 31 7 54 0 23 -3 47 -7 54 -5 8 -88 11 -282 11 -224 0 -276 -3 -280 -14z"/>
<path d="M14419 1811 c-19 -15 -23 -28 -23 -71 0 -64 25 -90 84 -90 54 0 81
26 87 82 5 40 2 50 -20 72 -32 32 -93 35 -128 7z"/>
</g>
</svg>
